<?xml version="1.0" standalone="no"?>
<!DOCTYPE svg PUBLIC "-//W3C//DTD SVG 20010904//EN"
 "http://www.w3.org/TR/2001/REC-SVG-20010904/DTD/svg10.dtd">
<svg version="1.0" xmlns="http://www.w3.org/2000/svg"
 width="576.000000pt" height="612.000000pt" viewBox="0 0 576.000000 612.000000"
 preserveAspectRatio="xMidYMid meet">

<g transform="translate(0.000000,612.000000) scale(0.100000,-0.100000)"
fill="#000000" stroke="none">
<path d="M2555 6113 c-22 -1 -62 -7 -90 -13 -27 -6 -82 -14 -122 -19 -76 -10
-161 -44 -204 -83 -42 -39 -117 -136 -139 -179 -14 -26 -40 -52 -74 -74 -30
-19 -67 -50 -83 -69 -31 -38 -103 -235 -103 -283 0 -37 27 -63 66 -63 26 0 33
7 56 54 23 46 35 58 83 82 199 97 505 -19 699 -265 70 -89 187 -255 221 -313
30 -53 42 -136 31 -212 l-7 -47 -111 106 c-79 74 -118 120 -134 155 -17 36
-36 58 -71 80 -72 46 -151 72 -220 74 -35 0 -63 6 -63 11 0 6 -7 1 -15 -9 -12
-16 -27 -19 -107 -18 -101 0 -131 8 -184 48 -30 23 -34 32 -35 73 -1 43 -1 44
-11 18 -7 -21 -15 -27 -27 -22 -76 31 -106 34 -141 17 l-35 -17 -3 -90 c-3
-127 -7 -144 -52 -218 -40 -65 -47 -82 -32 -74 10 6 152 -12 168 -21 9 -5 4
-27 -22 -87 -40 -95 -42 -128 -12 -149 23 -17 133 -23 141 -8 3 4 -19 5 -48 4
-68 -5 -95 9 -95 50 0 28 121 298 134 298 4 0 0 -16 -9 -36 l-14 -35 66 -62
c117 -110 200 -156 360 -201 140 -40 229 -49 386 -43 78 3 150 8 160 12 16 7
17 3 11 -36 -12 -86 -27 -124 -84 -224 -90 -156 -109 -173 -289 -263 -86 -43
-190 -91 -231 -107 -91 -34 -114 -51 -40 -29 72 21 214 79 270 111 100 56 173
93 176 90 2 -2 -20 -57 -50 -123 -29 -65 -55 -127 -59 -136 -4 -11 -17 -18
-32 -18 -14 0 -40 -8 -58 -17 -18 -9 -41 -18 -51 -20 -28 -5 -43 -20 -66 -69
-12 -24 -28 -44 -35 -44 -7 0 -27 -11 -43 -25 -34 -29 -67 -31 -119 -10 -43
18 -46 18 -37 3 4 -8 3 -10 -2 -5 -5 5 -9 13 -9 19 0 6 -9 17 -21 25 -18 12
-23 12 -33 -1 -11 -14 15 -34 109 -83 18 -9 20 -13 8 -13 -10 0 -20 -10 -24
-25 -3 -14 -10 -25 -16 -25 -5 0 -7 3 -5 8 3 4 -23 7 -56 8 -34 1 -138 4 -232
9 -131 6 -187 4 -245 -7 -85 -16 -119 -12 -152 18 -13 11 -32 23 -41 27 -11 4
-16 16 -16 34 l2 28 4 -28 c2 -15 9 -25 14 -21 6 3 16 -2 24 -12 13 -18 14
-18 34 0 25 22 29 15 5 -9 -9 -9 -14 -19 -10 -22 3 -4 20 8 37 25 33 34 46 37
189 48 142 10 184 6 267 -27 42 -16 80 -28 85 -27 5 2 -16 19 -46 38 -61 38
-73 55 -54 77 15 19 66 10 83 -14 11 -14 15 -15 29 -4 14 12 13 17 -8 59 -28
56 -58 85 -78 77 -8 -3 -28 -30 -43 -60 -25 -51 -30 -55 -73 -62 -80 -14 -222
-6 -327 17 -299 65 -388 48 -495 -98 -27 -37 -50 -70 -50 -73 0 -3 26 -13 58
-22 31 -9 62 -20 67 -24 6 -5 9 -59 7 -136 -3 -116 -5 -128 -20 -122 -40 15
-132 38 -137 33 -4 -3 -47 -138 -66 -207 -3 -10 15 -19 66 -31 39 -9 103 -27
144 -39 l74 -23 -7 -45 c-3 -25 -6 -58 -6 -73 0 -24 -3 -26 -30 -22 -16 2 -27
8 -25 13 3 4 -3 12 -12 18 -12 7 -14 10 -4 11 8 0 20 -8 27 -17 15 -22 24 -15
29 23 2 16 4 29 5 29 1 0 4 12 6 28 6 36 0 34 -25 -8 -11 -19 -32 -40 -46 -47
-29 -13 -33 -28 -7 -29 11 0 12 -2 4 -6 -7 -3 -19 0 -26 7 -11 8 -16 8 -22 -1
-5 -9 -36 -10 -112 -6 -169 10 -315 -15 -493 -84 -71 -27 -86 -38 -125 -87
-60 -76 -164 -231 -208 -313 -37 -67 -80 -179 -71 -187 11 -11 140 96 218 182
48 53 87 94 87 92 0 -3 29 16 63 42 35 26 72 53 83 60 18 11 17 12 -2 3 -12
-6 -24 -8 -26 -6 -3 3 -19 -8 -36 -25 -18 -17 -32 -27 -32 -24 0 3 -9 -4 -20
-17 -10 -13 -19 -20 -20 -16 0 13 66 74 98 91 17 9 41 16 54 16 20 0 14 -9
-40 -61 -34 -34 -62 -67 -62 -74 0 -7 -8 -19 -17 -26 -16 -13 -17 -12 -4 4 7
9 11 17 8 17 -11 0 -86 -117 -80 -124 4 -3 1 -6 -5 -6 -7 0 -12 -7 -12 -15 0
-8 -4 -15 -10 -15 -5 0 -6 -7 -3 -17 5 -12 3 -14 -7 -8 -10 6 -12 4 -7 -8 4
-10 2 -17 -4 -17 -6 0 -9 -7 -5 -15 3 -8 2 -15 -2 -15 -13 0 -13 -158 -1 -224
6 -33 22 -88 36 -123 27 -67 26 -81 -3 -65 -11 6 -13 11 -5 16 21 13 11 26
-20 26 -53 0 -107 21 -151 59 -23 20 -44 35 -46 33 -2 -2 -7 0 -10 4 -4 4 -1
4 6 0 16 -10 16 -9 -13 48 -52 104 -21 -27 35 -147 8 -15 19 -26 26 -23 8 3
11 0 8 -8 -16 -41 92 -59 191 -32 75 20 230 88 318 140 43 25 80 46 83 46 9 0
248 162 327 222 l77 58 1 -27 c3 -125 70 -691 99 -835 11 -53 20 -134 20 -181
0 -79 2 -87 30 -122 22 -27 29 -47 27 -70 -1 -18 -5 -31 -9 -29 -4 3 -10 -8
-13 -23 -13 -60 -38 -129 -66 -185 -16 -32 -26 -58 -22 -58 5 0 3 -4 -3 -8
-12 -8 -68 -114 -78 -149 -12 -37 30 -70 137 -108 75 -27 102 -33 115 -25 14
9 13 10 -8 6 -14 -3 -19 -3 -12 0 6 3 9 10 6 16 -4 6 1 6 13 -1 11 -6 24 -7
29 -3 5 4 1 -2 -9 -14 -17 -21 -17 -21 30 -39 27 -10 121 -51 210 -90 89 -40
160 -67 157 -61 -3 6 1 3 9 -7 22 -26 157 -85 249 -108 162 -40 395 -23 543
41 105 45 117 52 103 62 -9 6 -6 7 9 3 12 -3 38 3 63 16 39 21 41 23 24 36
-22 16 -11 17 14 2 15 -9 26 -6 60 15 23 14 44 26 46 26 14 0 94 58 89 64 -4
4 -1 4 8 1 8 -3 24 4 36 15 12 11 25 20 28 20 19 0 205 145 205 160 0 4 -7 7
-16 6 -11 0 -18 8 -20 24 -3 19 -2 22 6 10 8 -12 10 -10 11 10 1 18 3 20 6 7
3 -10 -1 -25 -8 -33 -10 -12 -8 -14 11 -11 43 7 68 96 33 116 -16 8 -16 14 -5
44 17 47 5 73 -68 152 -36 39 -60 73 -60 87 0 50 -30 418 -41 504 -10 84 -9
103 20 270 33 196 34 216 8 257 -32 51 -47 76 -47 80 0 2 7 4 15 4 8 0 15 -4
15 -9 0 -4 4 -8 10 -8 5 0 7 6 4 14 -4 10 9 17 45 26 49 12 153 71 178 101 10
13 0 32 -59 110 -40 52 -78 100 -85 108 -11 11 -11 16 -1 30 12 15 11 15 -7 1
-11 -8 -36 -29 -56 -46 -19 -17 -61 -43 -93 -59 -55 -27 -57 -27 -72 -9 -15
18 -15 18 -11 -4 4 -16 1 -22 -12 -22 -18 0 -56 65 -52 89 1 7 -2 10 -7 7 -11
-6 -54 68 -45 78 3 3 1 6 -5 6 -6 0 -23 22 -37 49 l-24 49 27 10 c25 8 28 7
30 -12 0 -11 -2 -16 -6 -11 -8 11 -32 18 -32 10 0 -3 7 -22 15 -41 9 -23 19
-33 26 -28 7 4 9 3 6 -3 -4 -6 2 -18 13 -28 22 -20 28 -8 8 15 -7 8 -3 6 10
-5 12 -10 18 -21 13 -25 -14 -8 -9 -48 6 -54 7 -3 13 -14 13 -24 0 -10 8 -29
19 -41 39 -45 31 10 -20 127 -28 64 -53 122 -55 128 -3 6 24 25 58 43 103 54
138 87 138 127 0 63 31 94 60 59 10 -12 16 -10 38 17 15 18 27 34 27 37 0 3 5
14 11 25 10 17 14 15 45 -24 19 -23 33 -51 33 -62 -1 -12 3 -17 11 -14 29 11
58 -59 32 -79 -4 -3 -5 -2 -2 2 3 3 -1 13 -8 21 -10 13 -9 14 2 7 10 -6 12 -4
7 4 -4 7 -13 10 -19 8 -7 -3 -22 5 -34 16 -45 40 -36 6 10 -41 34 -34 46 -54
44 -73 -2 -20 18 -46 89 -121 l92 -96 8 40 9 40 111 -129 c101 -119 110 -131
101 -156 -11 -33 -27 -26 -21 9 3 14 1 23 -5 20 -5 -3 -16 5 -24 18 -9 13 -24
31 -34 42 -17 17 -17 18 0 11 13 -5 17 -3 14 5 -2 7 -10 12 -16 10 -8 -1 -9 2
-5 9 5 8 2 10 -8 6 -9 -3 -21 0 -28 6 -21 20 -8 -4 54 -97 55 -83 58 -90 48
-122 -5 -19 -9 -42 -7 -51 9 -43 13 -146 5 -123 -4 14 -8 44 -9 68 -1 44 -15
57 -24 21 -3 -12 -3 -59 0 -104 6 -80 5 -84 -20 -109 -30 -30 -90 -36 -122
-12 -17 12 -25 10 -78 -26 -32 -22 -72 -45 -90 -53 -31 -13 -32 -12 -55 22
-18 26 -27 32 -32 22 -10 -15 20 -60 35 -51 6 3 6 1 2 -3 -14 -16 -39 -14 -33
2 4 10 2 13 -7 10 -10 -4 -13 2 -11 18 1 13 5 28 8 34 9 14 -24 62 -37 54 -6
-3 -7 -1 -3 5 10 17 -75 150 -99 156 -18 5 -19 4 -3 -8 10 -7 14 -17 10 -21
-4 -5 -2 -5 4 -2 7 4 14 -5 18 -25 3 -17 9 -28 13 -25 3 4 15 -7 25 -24 11
-17 17 -34 14 -37 -4 -3 -6 1 -6 8 0 10 -3 11 -11 3 -7 -7 -3 -24 15 -59 14
-27 40 -83 59 -124 55 -122 109 -155 350 -214 152 -37 205 -43 238 -26 22 12
53 70 64 119 l7 33 52 -50 c99 -98 242 -142 459 -142 139 0 226 12 306 42 31
11 130 39 221 63 91 23 183 49 206 58 212 79 373 236 464 453 38 92 92 304
121 479 28 164 31 422 6 530 -32 144 -100 299 -198 458 -48 77 -50 84 -60 186
-26 278 -106 446 -319 673 -264 281 -539 430 -895 483 -153 23 -281 20 -462
-10 l-32 -6 11 32 c15 43 4 133 -27 215 -15 38 -35 92 -45 119 -10 28 -30 109
-45 180 -15 72 -35 156 -46 188 l-19 57 21 38 c27 46 21 89 -18 150 -35 54
-70 68 -130 55 -42 -10 -50 -9 -96 19 -102 60 -207 108 -377 171 -226 84 -279
94 -445 80z m-108 -1099 c-3 -3 -12 -4 -19 -1 -8 3 -5 6 6 6 11 1 17 -2 13 -5z
m43 -14 c8 -5 11 -10 5 -10 -5 0 -17 5 -25 10 -8 5 -10 10 -5 10 6 0 17 -5 25
-10z m-687 -25 c-7 -62 48 -105 89 -69 20 19 20 19 16 -1 -6 -30 -82 -27 -126
5 -55 41 -53 95 3 88 13 -2 19 -10 18 -23z m741 0 c11 -8 16 -15 10 -15 -5 0
-18 7 -28 15 -11 8 -16 15 -10 15 5 0 18 -7 28 -15z m-696 -39 c3 -12 -1 -17
-10 -14 -7 3 -15 13 -16 22 -3 12 1 17 10 14 7 -3 15 -13 16 -22z m40 -6 c-12
-19 -28 -27 -28 -14 0 6 30 33 38 34 1 0 -3 -9 -10 -20z m717 0 c10 -11 16
-20 13 -20 -3 0 -13 9 -23 20 -10 11 -16 20 -13 20 3 0 13 -9 23 -20z m-253
-68 c13 -5 15 -11 8 -22 -17 -26 -11 -60 15 -85 32 -33 60 -31 95 4 29 28 29
28 47 9 17 -19 17 -20 -2 -34 -45 -33 -154 -12 -213 40 -20 18 -46 38 -56 43
-18 10 -16 13 20 31 41 22 58 25 86 14z m56 -49 c-5 -26 -38 -29 -38 -4 0 15
6 21 21 21 14 0 19 -5 17 -17z m6 -54 c-3 -5 -10 -7 -15 -3 -5 3 -7 10 -3 15
3 5 10 7 15 3 5 -3 7 -10 3 -15z m2029 -74 c137 -31 264 -91 384 -181 50 -38
90 -70 88 -73 -3 -2 -37 15 -77 38 -108 62 -239 119 -347 149 -88 25 -111 27
-276 27 -194 0 -272 -14 -402 -70 -53 -23 -56 -23 -33 -4 60 50 220 112 333
129 107 16 219 11 330 -15z m-1783 -986 c70 -47 164 -155 210 -241 50 -93 69
-162 86 -313 l16 -143 -30 -44 c-16 -24 -38 -50 -48 -60 -29 -25 -98 -58 -136
-64 -28 -5 -36 -2 -47 19 -11 20 -24 26 -69 32 -83 10 -83 10 -61 61 16 36 18
48 8 66 -11 21 -165 216 -179 228 -4 3 -26 31 -49 63 -44 61 -71 77 -124 77
-43 0 -79 26 -75 53 6 45 103 50 213 12 20 -7 20 -6 1 9 -11 9 -46 21 -77 28
-54 11 -57 13 -47 32 21 41 62 76 88 76 15 0 49 -11 75 -25 27 -13 51 -22 53
-20 6 6 -58 44 -86 51 -18 5 -21 11 -16 28 12 39 45 76 67 76 24 0 78 -30 116
-64 16 -14 22 -16 19 -6 -2 8 -28 29 -56 46 -52 32 -54 41 -12 57 47 17 99 6
160 -34z m-667 13 c-5 -11 -7 -11 -14 0 -7 11 -11 10 -19 -2 -5 -8 -10 -10
-10 -4 0 16 10 23 30 21 11 -1 16 -7 13 -15z m21 -44 c-4 -13 -2 -18 4 -14 6
4 16 -4 22 -16 11 -22 11 -22 -5 -3 -9 11 -19 18 -23 15 -4 -3 -7 7 -7 22 -1
15 3 24 7 21 5 -2 6 -14 2 -25z m-34 1 c0 -6 -4 -7 -10 -4 -5 3 -10 11 -10 16
0 6 5 7 10 4 6 -3 10 -11 10 -16z m-687 -6 c-7 -2 -19 -2 -25 0 -7 3 -2 5 12
5 14 0 19 -2 13 -5z m-83 -25 c0 -6 -6 -5 -15 2 -8 7 -15 14 -15 16 0 2 7 1
15 -2 8 -4 15 -11 15 -16z m37 16 c-3 -3 -12 -4 -19 -1 -8 3 -5 6 6 6 11 1 17
-2 13 -5z m-32 -33 c37 1 76 -8 88 -20 14 -14 30 -15 22 -1 -9 14 8 12 27 -2
15 -13 32 -48 23 -48 -3 0 -27 11 -53 25 -26 13 -83 31 -127 39 -44 8 -67 15
-52 15 20 1 26 5 21 14 -4 6 1 4 12 -5 11 -9 28 -17 39 -17z m222 -33 c-3 -8
-6 -5 -6 6 -1 11 2 17 5 13 3 -3 4 -12 1 -19z m465 0 c15 -1 25 -5 22 -9 -2
-4 -19 -3 -37 2 -17 5 -33 9 -35 9 -2 0 0 5 4 11 5 8 8 8 13 0 4 -6 19 -12 33
-13z m-245 6 c-3 -3 -12 -4 -19 -1 -8 3 -5 6 6 6 11 1 17 -2 13 -5z m-44 -11
c-7 -2 -19 -2 -25 0 -7 3 -2 5 12 5 14 0 19 -2 13 -5z m-157 -27 c24 4 25 3
10 -11 -13 -13 -19 -14 -36 -3 -11 7 -20 20 -20 28 1 12 2 12 10 -2 7 -11 19
-15 36 -12z m201 18 c-3 -3 -12 -4 -19 -1 -8 3 -5 6 6 6 11 1 17 -2 13 -5z
m573 -42 c0 -13 -24 -39 -42 -45 -10 -4 -18 -3 -18 2 0 5 9 11 20 14 11 3 20
12 20 21 0 9 5 16 10 16 6 0 10 -4 10 -8z m-12 -167 c75 -10 80 -14 121 -68
21 -29 77 -96 124 -149 48 -54 93 -111 102 -128 15 -29 14 -34 -12 -101 -17
-45 -39 -81 -60 -100 -18 -15 -33 -30 -33 -33 0 -3 -5 -17 -10 -32 l-11 -27
-25 48 c-27 49 -93 145 -100 145 -9 0 40 -87 82 -147 49 -68 50 -81 12 -156
-21 -42 -82 -113 -109 -128 -15 -7 -13 3 12 56 16 35 29 77 29 93 0 34 -44
103 -96 152 l-38 35 38 -50 c20 -27 46 -69 58 -91 l21 -41 -22 -73 c-46 -150
-81 -160 -110 -34 -7 29 -22 61 -34 72 -30 26 -111 55 -134 48 -11 -3 -43 -40
-71 -81 -59 -83 -82 -94 -160 -77 -42 10 -112 50 -112 65 0 4 -16 0 -36 -8
-20 -8 -41 -15 -46 -15 -15 0 -70 128 -75 174 -5 43 -5 43 38 61 42 17 47 24
99 134 118 248 232 377 424 482 l49 27 19 -23 c13 -17 33 -26 66 -30z m-980
-40 c34 -15 41 -22 36 -38 -4 -11 -1 -23 7 -28 11 -7 11 -9 -2 -9 -11 0 -19
-14 -25 -42 -18 -84 -44 -45 -44 68 l0 53 -31 -4 c-26 -3 -29 -2 -18 11 10 12
8 19 -9 35 -12 11 -22 23 -22 26 0 4 15 -7 33 -23 17 -17 51 -39 75 -49z
m1985 58 c-4 -10 -2 -14 4 -10 6 4 23 -9 37 -28 15 -19 22 -35 17 -35 -6 0
-11 5 -11 11 0 5 -5 7 -10 4 -6 -4 -9 -2 -8 3 2 6 0 9 -3 9 -8 -3 -39 30 -39
41 0 10 -85 -1 -138 -17 -18 -5 -35 -10 -37 -10 -19 0 -73 -26 -69 -33 3 -5
10 -6 15 -3 5 3 6 -1 2 -10 -5 -13 -7 -14 -14 -3 -7 10 -9 8 -10 -7 -1 -17 -2
-16 -9 5 -12 42 25 60 175 85 107 18 105 18 98 -2z m-114 -27 c-2 -2 -18 -11
-36 -20 -25 -12 -33 -13 -39 -3 -4 6 -4 9 0 5 4 -3 19 0 34 8 25 13 51 19 41
10z m-1959 -10 c0 -2 -8 -10 -17 -17 -16 -13 -17 -12 -4 4 13 16 21 21 21 13z
m2077 -22 c12 -7 34 -29 48 -49 31 -40 55 -37 29 3 -17 27 -16 27 15 -2 l31
-30 -87 -27 c-49 -14 -99 -31 -113 -36 -16 -7 -37 -7 -58 -1 -19 5 -40 7 -47
4 -11 -4 -55 27 -55 40 0 21 36 65 67 84 67 40 121 45 170 14z m-1523 -44 c55
-6 102 -13 105 -15 2 -3 -5 -15 -17 -28 -26 -27 -27 -34 -7 -34 8 0 15 4 15 9
0 5 4 7 9 4 4 -3 16 3 26 14 19 21 9 28 -13 10 -7 -5 -6 -3 2 6 8 9 19 13 25
9 7 -4 -4 -24 -31 -54 -24 -27 -46 -44 -49 -39 -3 5 -12 2 -19 -7 -10 -12 -10
-15 4 -15 10 0 14 -5 11 -10 -5 -8 -11 -7 -21 1 -13 10 -12 14 2 30 9 10 21
17 26 16 6 -1 12 3 15 10 8 23 -25 7 -52 -25 -22 -26 -25 -35 -15 -47 7 -8 17
-12 24 -8 6 4 5 -1 -3 -10 -7 -9 -19 -17 -25 -17 -7 0 -6 3 2 9 10 6 10 10 -3
21 -13 11 -19 7 -17 -11 1 -4 -26 2 -59 12 -79 25 -178 24 -249 -1 -30 -11
-58 -19 -61 -20 -3 0 7 36 22 81 16 44 29 86 29 93 0 7 -13 13 -30 14 -16 0
-36 4 -44 9 -19 11 271 5 398 -7z m-354 -20 c18 -12 2 -12 -25 0 -13 6 -15 9
-5 9 8 0 22 -4 30 -9z m1627 -12 c-3 -8 -6 -5 -6 6 -1 11 2 17 5 13 3 -3 4
-12 1 -19z m-1654 -28 c-3 -11 -7 -20 -9 -20 -2 0 -4 9 -4 20 0 11 4 20 9 20
5 0 7 -9 4 -20z m-23 -54 c0 -6 -5 -4 -10 4 -9 13 -11 13 -20 0 -11 -17 -13
-10 -4 14 5 13 9 14 20 5 8 -6 14 -17 14 -23z m26 -9 c0 -13 -6 -24 -13 -24
-8 0 -8 7 0 24 13 29 15 29 13 0z m1744 3 c8 6 20 10 25 9 6 0 -3 -7 -19 -15
-34 -19 -111 -30 -102 -15 4 6 14 7 23 4 11 -4 14 -3 9 5 -5 8 -2 10 8 6 9 -4
16 -1 16 6 0 9 4 9 13 2 8 -7 18 -7 27 -2z m-1900 -12 c0 -14 -16 -16 -33 -3
-17 12 -16 13 7 11 15 0 26 -4 26 -8z m47 -2 c4 -4 3 -6 -3 -4 -16 4 -15 -12
1 -35 11 -16 13 -15 19 13 5 28 26 35 26 9 0 -6 -5 -7 -11 -4 -6 4 -10 1 -8
-6 4 -33 -1 -48 -16 -43 -8 4 -15 12 -15 20 0 8 -6 11 -15 8 -12 -5 -15 0 -13
24 2 28 17 36 35 18z m73 -20 c0 -3 -4 -8 -10 -11 -5 -3 -10 -1 -10 4 0 6 5
11 10 11 6 0 10 -2 10 -4z m23 -12 c-7 -3 -9 -12 -6 -20 3 -8 1 -14 -5 -14 -6
0 -17 -3 -26 -6 -10 -4 -16 -1 -16 10 0 9 6 13 14 10 7 -3 16 2 19 10 4 9 12
16 19 15 9 0 10 -2 1 -5z m1697 2 c0 -9 -30 -14 -35 -6 -4 6 3 10 14 10 12 0
21 -2 21 -4z m474 -105 c5 -8 93 -36 106 -33 7 1 9 -14 16 -146 l6 -113 29 6
c18 4 29 2 29 -4 0 -7 -32 -11 -87 -11 -49 0 -106 -5 -128 -10 -33 -8 -42 -7
-53 8 -7 9 -18 16 -23 14 -6 -1 -8 2 -5 7 4 6 -97 135 -154 194 -4 5 -10 1
-13 -7 -4 -9 -1 -15 6 -13 7 1 11 -4 9 -11 -1 -8 2 -11 8 -7 6 3 10 -3 10 -15
0 -14 4 -19 13 -14 6 4 9 4 5 0 -8 -10 14 -36 24 -29 4 2 5 -4 1 -13 -5 -13
-3 -15 7 -9 9 5 11 4 6 -3 -6 -11 6 -16 26 -13 5 0 7 -2 7 -7 -3 -20 2 -32 14
-29 7 1 11 -6 9 -16 -2 -12 4 -21 17 -24 20 -5 30 -33 13 -33 -12 0 -72 76
-72 91 0 7 -3 10 -6 6 -6 -5 -124 136 -124 148 0 3 6 5 14 5 7 0 19 7 26 14
13 17 87 43 170 62 69 15 87 16 94 5z m163 -15 c30 -28 29 -40 -2 -20 -14 9
-22 20 -19 25 3 5 0 9 -5 9 -6 0 -11 -6 -11 -12 0 -9 -4 -8 -10 2 -7 11 -10
11 -10 2 0 -8 -5 -10 -12 -5 -7 4 -31 10 -53 14 -32 6 -26 7 30 7 57 -1 74 -5
92 -22z m-30 -58 c-3 -7 -5 -2 -5 12 0 14 2 19 5 13 2 -7 2 -19 0 -25z m41
-97 c1 -59 -3 -99 -8 -92 -4 8 -6 30 -3 50 3 22 -1 52 -11 75 -20 48 -20 57 1
31 15 -19 15 -19 9 7 -3 14 -9 34 -13 44 -6 16 -5 17 9 4 13 -12 16 -37 16
-119z m1908 24 c15 -54 19 -105 19 -225 0 -164 -16 -252 -67 -375 -26 -60
-119 -225 -129 -225 -3 0 11 44 33 97 82 205 120 389 121 598 0 77 -3 160 -7
185 -10 63 7 32 30 -55z m-4206 3 l35 -3 -40 -19 c-22 -10 -66 -31 -97 -47
-32 -16 -58 -26 -58 -23 0 4 -7 1 -15 -6 -12 -10 -15 -9 -15 4 0 10 4 15 9 11
5 -3 13 0 16 6 4 5 13 8 21 5 8 -3 14 -1 14 4 0 4 17 14 38 21 57 18 59 33 4
40 -44 6 -77 -4 -67 -21 2 -4 -2 -16 -10 -26 -14 -18 -15 -17 -9 11 13 65 9
62 77 54 34 -5 78 -10 97 -11z m190 -15 c3 -3 -23 -3 -57 -1 -59 3 -62 2 -57
-17 4 -14 3 -16 -4 -7 -7 11 -10 11 -15 -2 -4 -9 -12 -16 -19 -16 -9 0 -8 3 2
10 8 5 11 10 6 10 -5 0 -1 9 9 20 17 18 26 20 74 14 31 -3 58 -9 61 -11z m13
-21 c-3 -12 -10 -22 -17 -22 -7 0 -6 -4 2 -9 10 -6 7 -10 -13 -15 -36 -9 -41
-2 -20 30 12 19 19 23 25 14 6 -9 10 -6 15 9 9 29 16 22 8 -7z m38 19 c5 8 9
9 9 3 0 -18 -28 -49 -37 -40 -4 5 -3 11 4 13 7 2 11 10 9 16 -1 7 -1 8 2 3 2
-4 8 -2 13 5z m-321 -5 c0 -2 -7 -6 -15 -10 -8 -3 -15 -1 -15 4 0 6 7 10 15
10 8 0 15 -2 15 -4z m213 -26 c-3 -11 -10 -17 -15 -14 -5 4 -7 -9 -4 -33 3
-21 3 -29 0 -18 -4 11 -10 25 -15 31 -5 6 -1 19 12 32 25 27 29 27 22 2z m-54
-37 c12 -24 59 -200 63 -238 2 -17 8 -29 16 -28 6 2 12 -2 12 -7 0 -5 -4 -10
-9 -10 -5 0 -12 -8 -15 -17 -4 -10 -4 -14 -1 -11 4 4 18 3 32 -3 36 -13 73 -1
70 23 -1 12 4 23 11 25 6 3 12 0 12 -7 0 -6 -4 -8 -10 -5 -5 3 -10 2 -10 -4 0
-5 6 -11 12 -13 10 -4 9 -9 -3 -20 -24 -24 -98 -18 -139 12 -19 14 -43 30 -54
35 -40 21 -60 73 -60 159 0 45 6 91 12 104 15 26 48 29 61 5z m-279 -67 c0
-15 -47 -28 -55 -16 -4 7 16 18 53 29 1 1 2 -5 2 -13z m327 -8 c-3 -8 -6 -5
-6 6 -1 11 2 17 5 13 3 -3 4 -12 1 -19z m-217 7 c0 -3 -27 -18 -60 -35 -64
-32 -83 -59 -25 -34 19 7 46 14 60 14 22 0 25 -4 25 -39 0 -33 -4 -40 -30 -51
-16 -7 -43 -10 -60 -8 -29 4 -30 3 -30 -32 0 -62 64 -242 93 -261 5 -4 -3 -15
-18 -25 -14 -11 -39 -30 -56 -42 -16 -13 -29 -20 -29 -16 0 4 -9 -1 -20 -11
-11 -10 -20 -13 -20 -8 0 10 32 28 37 21 2 -2 10 7 18 20 9 12 23 22 31 22 8
0 14 5 14 10 0 6 7 10 15 10 8 0 15 5 15 11 0 6 -7 9 -14 6 -9 -4 -13 -1 -10
7 3 7 1 22 -3 34 -8 21 -10 21 -31 6 -12 -8 -20 -20 -17 -25 3 -5 0 -6 -8 -3
-17 6 -41 -21 -32 -35 3 -7 0 -8 -10 -5 -9 4 -25 -2 -35 -11 -16 -15 -18 -21
-7 -34 10 -14 10 -14 -4 -3 -14 11 -21 7 -48 -24 -30 -34 -33 -35 -50 -20 -27
24 -68 104 -81 158 l-12 48 -37 -31 c-81 -71 -231 -221 -231 -232 0 -7 16 -50
35 -97 19 -46 33 -84 32 -85 -1 0 -11 -5 -23 -11 -11 -7 -44 -24 -72 -39 -29
-15 -52 -29 -52 -31 0 -6 34 1 49 10 11 7 12 6 5 -5 -5 -8 -9 -18 -9 -24 -1
-5 -7 -9 -15 -7 -50 11 -161 171 -178 257 -18 90 -16 141 9 164 13 12 18 24
13 32 -5 9 -10 8 -16 -7 -5 -12 -6 -6 -2 16 8 45 21 68 68 124 28 34 42 44 51
36 14 -11 54 25 41 38 -4 4 -14 -2 -22 -12 -8 -11 -14 -15 -14 -9 0 22 135
123 164 123 2 0 -7 -20 -21 -45 -13 -25 -29 -45 -34 -45 -6 0 -7 -5 -3 -12 4
-7 3 -8 -4 -4 -12 7 -3 31 28 70 14 18 14 18 -7 7 -13 -6 -23 -18 -23 -26 0
-8 -8 -18 -18 -24 -13 -8 -14 -12 -5 -22 10 -10 9 -16 -4 -31 -27 -30 -6 -20
58 27 39 29 86 52 132 66 40 11 142 47 227 79 85 32 171 63 190 69 19 7 46 18
60 26 28 16 30 17 30 10z m-172 -36 c4 -11 2 -11 -8 -2 -10 9 -28 4 -81 -23
-38 -20 -67 -39 -64 -43 2 -4 -2 -8 -10 -8 -12 0 -12 5 2 27 11 19 34 33 77
48 67 22 78 22 84 1z m454 -121 c11 -16 16 -28 11 -28 -4 0 1 -7 11 -15 19
-15 19 -15 -1 -15 -21 0 -38 24 -27 41 3 5 1 9 -5 9 -5 0 -12 -6 -15 -12 -3
-7 -3 -2 0 11 4 14 2 21 -3 18 -6 -4 -8 3 -6 17 3 12 -1 29 -9 37 -7 8 -14 28
-15 44 -2 23 2 17 19 -25 11 -30 29 -67 40 -82z m-522 82 c-8 -5 -17 -7 -19
-4 -3 3 1 9 9 14 8 5 17 7 19 4 3 -3 -1 -9 -9 -14z m1565 -1 c4 -12 26 -29 51
-39 24 -11 44 -22 44 -25 0 -8 -44 -1 -56 10 -6 6 -21 16 -32 24 -12 8 -19 18
-16 23 3 4 1 8 -4 8 -6 0 -12 -7 -16 -15 -3 -9 -17 -14 -33 -14 l-28 2 28 4
c43 7 31 23 -17 23 -34 0 -43 -3 -42 -16 0 -9 -5 -18 -12 -20 -7 -1 -8 0 -3 2
7 4 6 10 -2 19 -7 7 -15 11 -19 8 -5 -2 -8 0 -8 6 0 6 28 9 70 8 39 -1 70 1
70 6 0 16 19 6 25 -14z m-155 -39 c0 -11 -4 -20 -8 -20 -4 0 -8 9 -8 20 0 11
4 20 8 20 4 0 8 -9 8 -20z m67 -6 c-3 -3 -12 -4 -19 -1 -8 3 -5 6 6 6 11 1 17
-2 13 -5z m57 -31 c80 3 149 1 152 -4 3 -5 -69 -9 -167 -9 -154 0 -170 2 -159
15 9 11 15 13 20 5 5 -8 50 -10 154 -7z m-7 11 c-3 -3 -12 -4 -19 -1 -8 3 -5
6 6 6 11 1 17 -2 13 -5z m-873 -49 c19 -14 18 -15 -12 -15 -30 0 -40 9 -25 23
9 10 15 8 37 -8z m1144 -50 c-3 -3 -9 2 -12 12 -6 14 -5 15 5 6 7 -7 10 -15 7
-18z m-1347 -38 c-8 -8 -18 -4 -36 13 -36 34 -31 43 11 18 25 -14 32 -24 25
-31z m82 46 c-7 -2 -21 -2 -30 0 -10 3 -4 5 12 5 17 0 24 -2 18 -5z m2166 -59
c26 -6 37 -16 55 -54 13 -27 20 -53 17 -59 -4 -6 -13 9 -20 33 -11 38 -15 43
-39 40 l-27 -4 25 9 c24 9 24 9 -8 10 -18 1 -31 5 -28 10 3 4 -20 9 -52 9
l-57 1 49 -44 c26 -25 40 -43 30 -39 -15 4 -14 1 5 -16 14 -12 31 -29 38 -38
12 -15 12 -15 6 3 -3 11 -10 26 -16 33 -6 8 -6 12 1 12 12 0 34 -58 27 -70 -3
-5 0 -12 6 -16 7 -4 9 -3 5 4 -3 6 -1 14 5 18 9 5 10 0 7 -14 -4 -12 -2 -22 3
-22 5 0 14 -11 21 -25 6 -13 15 -22 19 -19 5 3 9 -4 9 -15 0 -20 14 -29 23
-13 2 4 2 1 0 -6 -1 -7 2 -23 8 -34 9 -16 8 -19 -1 -13 -10 6 -11 -1 -5 -31
13 -64 15 -134 4 -134 -5 0 -7 -11 -3 -24 3 -13 1 -27 -6 -31 -13 -8 -33 -51
-35 -78 -1 -10 -13 -29 -25 -42 -23 -25 -23 -25 -4 -40 19 -15 19 -16 -3 -31
-13 -9 -23 -24 -23 -33 0 -12 2 -13 9 -3 7 11 9 11 14 -1 4 -10 0 -14 -11 -13
-25 4 -26 33 -3 48 24 15 27 28 8 28 -18 0 -62 -60 -45 -60 7 -1 2 -7 -11 -14
-22 -12 -21 -13 28 -23 l50 -10 11 32 c6 18 9 38 7 46 -2 8 -2 11 0 7 8 -13
25 -9 20 5 -2 6 5 27 15 46 18 32 18 34 1 47 -17 13 -17 14 0 8 19 -7 23 6 6
23 -6 6 -9 17 -6 25 3 8 8 5 14 -11 9 -22 10 -23 14 -5 3 10 5 42 4 70 0 37 3
50 13 47 6 -3 12 -8 12 -12 0 -18 -23 -127 -28 -136 -3 -5 -7 -19 -8 -31 -1
-12 -20 -63 -41 -114 -27 -65 -52 -106 -87 -143 -26 -29 -43 -44 -36 -35 14
20 13 21 -65 37 -49 9 -50 9 -28 -9 18 -14 20 -19 8 -24 -8 -3 -14 -2 -14 2 3
17 -2 23 -13 15 -40 -24 -42 -8 -4 27 24 22 54 56 67 75 13 19 32 38 42 41 10
3 16 8 13 11 -6 6 38 87 63 116 8 10 16 23 17 30 2 7 15 46 29 87 23 63 26 86
22 146 -3 43 -13 87 -25 110 -17 34 -144 190 -202 249 -11 12 -20 24 -20 28 0
9 106 9 149 1z m-832 -46 c-3 -8 -6 -5 -6 6 -1 11 2 17 5 13 3 -3 4 -12 1 -19z
m791 -1 c14 4 14 3 2 -5 -16 -12 -30 -7 -29 11 0 9 2 9 5 0 3 -7 13 -9 22 -6z
m-1517 -19 c17 -32 73 -189 139 -388 47 -146 54 -176 41 -179 -18 -4 -119 18
-125 27 -2 4 -18 106 -34 227 -48 344 -49 366 -21 313z m1583 -13 c-7 -16 -24
-21 -24 -6 0 8 7 13 27 20 1 1 0 -6 -3 -14z m-944 -5 c0 -6 -27 -10 -61 -10
-42 0 -58 -3 -53 -11 5 -8 -4 -10 -28 -7 -26 3 -34 0 -31 -9 3 -7 9 -13 14
-13 5 0 8 -3 7 -7 -1 -5 11 -30 26 -58 16 -27 39 -67 51 -88 l22 -38 22 27
c11 15 21 22 21 17 0 -5 -5 -14 -12 -21 -9 -9 8 -12 78 -12 75 0 91 3 91 15 0
9 -6 14 -12 11 -14 -5 -35 12 -35 29 0 5 4 3 10 -5 5 -8 12 -11 16 -8 3 4 -8
28 -25 53 -17 25 -31 51 -31 58 0 7 25 -26 55 -73 l54 -85 -112 -6 c-62 -4
-177 -14 -257 -23 -182 -20 -200 -20 -200 -1 0 8 5 15 11 15 5 0 7 -4 4 -10
-3 -5 -1 -10 6 -10 8 0 10 14 5 46 -3 26 -6 77 -6 115 0 56 -3 68 -17 71 -10
2 34 10 97 16 63 7 149 16 190 21 41 5 81 9 88 10 6 0 12 -3 12 -9z m47 -23
l20 -33 -33 0 c-18 0 -30 4 -28 8 3 5 9 6 14 3 4 -3 11 2 14 10 3 9 -1 18 -9
21 -16 7 -21 24 -6 24 5 0 18 -15 28 -33z m-1003 -190 c-15 -95 -30 -175 -33
-179 -5 -5 -59 5 -149 28 -8 2 -3 18 16 51 16 26 53 91 82 143 30 52 65 113
79 135 23 36 26 38 29 17 2 -13 -9 -100 -24 -195z m1074 188 c-3 -3 -9 2 -12
12 -6 14 -5 15 5 6 7 -7 10 -15 7 -18z m-1408 -20 c24 -4 50 -15 57 -24 8 -10
12 -12 13 -3 0 14 38 16 59 3 12 -8 12 -12 -2 -26 -21 -20 -22 -36 -3 -29 8 3
16 2 19 -3 3 -4 -8 -8 -24 -8 -34 -1 -34 -2 -13 31 9 13 14 27 11 30 -3 3 -28
-36 -56 -86 -37 -64 -50 -98 -46 -113 5 -17 4 -19 -4 -7 -8 12 -12 9 -20 -13
-17 -45 -14 -50 27 -43 20 3 44 7 52 7 8 1 -5 5 -30 8 l-45 7 47 4 c25 3 44 2
41 -2 -2 -5 0 -8 6 -8 6 0 13 11 17 25 5 20 34 57 34 43 0 -15 -35 -70 -47
-75 -11 -5 -12 -7 -2 -14 7 -4 -40 -7 -104 -5 -64 1 -119 5 -123 9 -4 3 10 29
30 57 38 53 45 70 21 50 -24 -20 -18 -5 7 16 14 13 19 14 14 4 -4 -8 6 0 23
19 17 19 27 39 24 45 -3 6 -3 8 2 4 4 -4 14 -3 22 3 11 10 11 15 1 28 -11 14
-11 14 3 3 13 -10 19 -9 29 3 7 8 9 22 5 32 -7 17 -8 17 -14 -1 -6 -16 -8 -17
-13 -4 -4 9 -35 22 -77 33 -68 16 -72 16 -98 -1 -34 -21 -48 -33 -79 -61 -13
-12 -24 -18 -24 -12 0 6 -5 7 -10 4 -6 -4 -8 -11 -5 -16 4 -5 -4 -9 -17 -9
-22 0 -22 1 7 24 16 13 33 22 37 19 5 -2 8 1 8 6 0 6 6 11 14 11 8 0 16 3 18
8 2 4 18 19 37 34 33 25 36 25 80 13 25 -7 66 -17 91 -20z m2250 15 c0 -5 -2
-10 -4 -10 -3 0 -8 5 -11 10 -3 6 -1 10 4 10 6 0 11 -4 11 -10z m-977 -7 c-7
-2 -19 -2 -25 0 -7 3 -2 5 12 5 14 0 19 -2 13 -5z m1070 -87 c35 -91 38 -109
20 -102 -12 5 -14 1 -9 -21 8 -34 -8 -11 -18 27 -5 17 -4 21 2 11 17 -24 22 5
8 45 -8 22 -15 33 -15 27 -1 -7 -6 -13 -12 -13 -8 0 -8 4 0 14 9 11 8 22 -7
50 -11 19 -22 32 -26 29 -4 -4 -4 1 0 10 6 16 8 16 22 -4 8 -12 24 -45 35 -73z
m-2463 74 c-8 -5 -19 -10 -25 -10 -5 0 -3 5 5 10 8 5 20 10 25 10 6 0 3 -5 -5
-10z m1007 -10 c4 -12 3 -13 -5 -1 -7 10 -21 12 -52 7 -28 -4 -39 -3 -35 4 10
17 88 8 92 -10z m331 13 c-10 -2 -26 -2 -35 0 -10 3 -2 5 17 5 19 0 27 -2 18
-5z m-444 -17 c-3 -7 1 -30 10 -49 8 -19 12 -38 8 -41 -3 -3 -14 17 -24 46
-22 63 -21 58 -3 58 8 0 12 -6 9 -14z m503 8 c-3 -3 -12 -4 -19 -1 -8 3 -5 6
6 6 11 1 17 -2 13 -5z m-81 -36 c1 -35 -1 -35 -14 0 -7 21 -7 29 2 29 6 0 11
-13 12 -29z m-983 6 c-5 -13 -7 -13 -14 -2 -7 11 -11 10 -19 -2 -7 -11 -10
-11 -10 -2 0 7 -4 10 -10 7 -5 -3 -10 -1 -10 4 0 6 16 11 35 11 27 0 33 -3 28
-16z m19 -16 c-7 -7 -12 -8 -12 -2 0 6 3 14 7 17 3 4 9 5 12 2 2 -3 -1 -11 -7
-17z m-602 2 c0 -5 -5 -10 -11 -10 -5 0 -7 5 -4 10 3 6 8 10 11 10 2 0 4 -4 4
-10z m-35 -20 c4 -6 1 -9 -6 -8 -7 2 -16 -8 -20 -22 -6 -21 -7 -22 -8 -4 -1
11 4 25 11 32 15 15 15 15 23 2z m610 1 c3 -6 -1 -25 -10 -43 -8 -18 -13 -25
-11 -16 6 19 -9 34 -17 18 -3 -6 -4 -5 -3 2 2 7 9 13 16 13 7 0 15 6 18 14 3
8 0 11 -7 7 -6 -4 -11 -2 -11 3 0 14 17 14 25 2z m-527 -46 c0 -14 -5 -28 -9
-31 -5 -3 -7 -11 -3 -17 3 -7 -2 -3 -10 7 -14 18 -21 15 -17 -7 1 -5 -3 -6 -9
-2 -5 3 -15 3 -22 -1 -8 -5 -6 -10 8 -16 18 -8 18 -8 0 -5 -29 3 -27 35 4 57
15 11 30 17 33 13 4 -3 9 2 13 11 9 22 12 20 12 -9z m266 14 c8 13 26 5 26
-11 0 -5 -7 -7 -16 -4 -11 4 -15 2 -11 -7 3 -8 0 -14 -6 -14 -7 0 -13 12 -14
25 0 16 2 20 7 12 5 -9 9 -9 14 -1z m1296 -4 c7 -9 8 -15 2 -15 -5 0 -12 7
-16 15 -3 8 -4 15 -2 15 2 0 9 -7 16 -15z m-1715 -24 c-3 -6 -11 -8 -17 -5 -7
5 -9 1 -5 -9 4 -12 2 -14 -11 -10 -14 5 -14 3 3 -17 l20 -23 -22 12 c-13 6
-23 16 -23 21 0 14 31 41 41 35 5 -4 9 -1 9 6 0 7 3 10 6 6 3 -3 3 -11 -1 -16z
m1745 11 c0 -5 -7 -17 -15 -28 -14 -18 -14 -17 -4 9 12 27 19 34 19 19z
m-1715 -12 c3 -5 1 -10 -4 -10 -6 0 -11 5 -11 10 0 6 2 10 4 10 3 0 8 -4 11
-10z m1268 -29 c2 -10 0 -25 -5 -32 -8 -11 -9 -10 -5 3 3 9 2 18 -2 20 -5 2
-12 14 -16 28 -7 22 -6 23 7 12 9 -7 18 -21 21 -31z m-747 5 c0 -13 -4 -22 -8
-20 -9 6 -6 44 3 44 4 0 6 -11 5 -24z m1314 -7 c0 -3 -6 -6 -14 -6 -8 0 -11 8
-8 20 4 14 7 16 13 5 5 -7 9 -16 9 -19z m-1501 -53 c-9 -10 -39 -17 -39 -10 0
2 5 13 12 23 9 14 14 16 24 7 7 -6 9 -15 3 -20z m1004 27 c-7 -2 -19 -2 -25 0
-7 3 -2 5 12 5 14 0 19 -2 13 -5z m-842 -30 c-12 -20 -14 -14 -5 12 4 9 9 14
11 11 3 -2 0 -13 -6 -23z m59 17 c0 -5 -4 -10 -10 -10 -5 0 -10 5 -10 10 0 6
5 10 10 10 6 0 10 -4 10 -10z m2268 -56 c-10 -86 -20 -97 -13 -15 4 55 10 81
19 81 1 0 -1 -30 -6 -66z m-2751 50 c-3 -3 -12 -4 -19 -1 -8 3 -5 6 6 6 11 1
17 -2 13 -5z m1208 -3 c-8 -14 10 -22 31 -14 16 6 16 7 -2 15 -18 8 -18 8 1 5
11 -1 21 -10 23 -20 3 -13 -3 -17 -27 -17 -31 0 -47 13 -36 30 3 6 8 10 11 10
3 0 3 -4 -1 -9z m-1096 -41 c106 -23 112 -23 91 -10 -13 8 -12 10 3 10 9 0 17
-7 17 -15 0 -8 -4 -15 -9 -15 -32 0 -228 43 -236 52 -7 8 -2 9 15 4 14 -4 67
-15 119 -26z m2608 -12 c-3 -8 -6 -5 -6 6 -1 11 2 17 5 13 3 -3 4 -12 1 -19z
m-3182 -138 c8 -13 -5 -13 -25 0 -13 8 -13 10 2 10 9 0 20 -4 23 -10z m642
-37 c-3 -10 -5 -4 -5 12 0 17 2 24 5 18 2 -7 2 -21 0 -30z m-696 -2 c-8 -5
-20 -7 -28 -4 -21 8 -15 13 15 13 20 0 23 -3 13 -9z m685 -90 c-5 -52 -4 -70
6 -73 7 -3 76 -13 154 -23 124 -16 142 -21 150 -39 16 -37 99 -84 182 -102
111 -25 411 -26 501 -1 74 20 147 58 144 75 -2 6 4 9 11 6 9 -4 24 10 40 39
l26 44 88 12 c48 7 139 15 203 18 l117 6 11 -54 c6 -30 12 -88 13 -129 l3 -74
-72 -28 c-89 -34 -253 -82 -353 -102 -347 -70 -720 -39 -1216 100 -21 5 -21 4
-12 -52 12 -78 65 -187 125 -259 l50 -61 139 -46 c328 -110 593 -125 885 -49
97 25 359 119 493 176 38 16 53 15 42 -4 -4 -6 -14 -8 -24 -5 -14 5 -13 2 3
-12 20 -17 17 -17 -30 2 -8 3 -15 1 -15 -6 0 -6 -4 -8 -10 -5 -5 3 -10 1 -10
-5 0 -6 -4 -9 -9 -5 -6 3 -24 -3 -42 -14 -17 -11 -39 -17 -47 -13 -9 3 -13 1
-9 -5 4 -6 4 -13 -1 -15 -9 -4 -82 -105 -82 -114 0 -4 8 0 18 7 15 11 15 11 4
-1 -7 -8 -16 -15 -20 -15 -4 0 -32 -26 -63 -58 -31 -31 -61 -57 -67 -57 -5 0
-15 -7 -22 -15 -10 -12 -8 -16 11 -24 19 -8 20 -10 6 -10 -10 -1 -16 -5 -13
-10 7 -11 -28 -21 -69 -20 -26 0 -27 2 -10 9 11 5 33 11 49 15 19 4 25 10 19
16 -6 6 -29 1 -64 -16 -35 -16 -72 -25 -104 -25 -65 0 -259 -32 -405 -65 -135
-32 -240 -38 -248 -15 -4 12 -2 13 9 4 17 -13 114 -9 153 6 15 5 40 10 56 10
16 0 32 5 35 10 4 6 14 10 23 9 10 -2 37 1 62 6 l45 8 -75 14 c-41 8 -82 16
-90 17 -8 2 -33 10 -54 20 -22 9 -46 14 -53 11 -8 -2 -12 -1 -8 4 3 5 -10 14
-29 21 -18 6 -58 26 -89 44 l-55 33 14 -32 c7 -18 10 -35 7 -39 -17 -16 -107
0 -208 39 -12 5 -6 -4 14 -21 19 -16 55 -48 80 -71 25 -23 69 -57 98 -75 29
-18 52 -37 53 -41 1 -21 -175 26 -262 70 -27 13 -48 21 -48 18 0 -18 115 -181
218 -310 46 -57 51 -66 18 -30 -96 103 -283 367 -300 423 -9 27 -26 29 -26 2
0 -11 5 -20 10 -20 6 0 10 -5 10 -11 0 -8 -5 -7 -16 2 -9 7 -14 22 -11 36 2
13 0 26 -4 29 -5 3 -9 11 -9 17 0 7 6 3 13 -8 11 -18 12 -17 17 15 7 47 38 50
127 11 80 -35 190 -67 199 -58 12 11 -17 36 -34 30 -13 -3 -14 -2 -4 4 10 7 2
19 -32 47 -44 36 -64 44 -58 25 1 -6 -6 -5 -17 1 -28 14 -36 13 -21 -5 9 -10
9 -15 1 -15 -6 0 -12 5 -12 10 -3 19 -4 25 -10 35 -4 6 -5 18 -3 28 1 11 -11
31 -32 49 -50 44 -123 144 -156 215 -16 34 -36 97 -43 140 -16 87 -20 303 -6
303 5 0 12 32 16 70 4 39 9 70 12 70 3 0 3 -31 -1 -69z m1914 18 c0 -5 -4 -9
-8 -9 -5 0 -9 7 -9 15 0 8 4 12 9 9 4 -3 8 -9 8 -15z m-3100 -19 c0 -5 -4 -10
-10 -10 -5 0 -10 5 -10 10 0 6 5 10 10 10 6 0 10 -4 10 -10z m90 -26 c0 -2 -9
-4 -20 -4 -11 0 -20 4 -20 9 0 5 9 7 20 4 11 -3 20 -7 20 -9z m2784 -23 c3 -5
22 -9 41 -8 19 1 39 -3 45 -9 10 -10 -23 -10 -88 1 -48 9 -67 25 -28 25 14 0
27 -4 30 -9z m-2761 -8 c-7 -2 -19 -2 -25 0 -7 3 -2 5 12 5 14 0 19 -2 13 -5z
m1013 -10 c18 -7 8 -23 -14 -23 -15 0 -15 2 -2 10 11 7 6 10 -20 10 -33 -1
-34 -2 -16 -15 14 -11 16 -15 5 -15 -12 0 -12 -2 1 -10 8 -5 11 -10 5 -10 -5
0 -17 5 -25 10 -12 8 -12 10 -1 10 8 0 2 11 -15 26 l-29 26 49 -7 c27 -4 55
-9 62 -12z m1254 -17 c0 -11 -19 -15 -25 -6 -3 5 1 10 9 10 9 0 16 -2 16 -4z
m-35 -16 c4 -6 -7 -8 -27 -5 -27 5 -30 4 -13 -5 17 -9 17 -10 -7 -5 -29 6
-163 -11 -182 -22 -6 -4 -21 -6 -33 -4 -13 1 -23 -2 -23 -8 0 -6 -8 -11 -17
-11 -10 0 -38 -7 -62 -16 -24 -8 -46 -12 -49 -9 -3 3 1 6 9 7 8 0 -6 4 -31 9
l-45 7 50 -1 c59 -1 125 11 143 26 8 6 64 18 125 28 140 20 154 21 162 9z
m545 -14 c0 -2 -9 -6 -20 -9 -11 -3 -18 -1 -14 4 5 9 34 13 34 5z m44 -42 c-5
-34 -4 -45 5 -40 7 5 9 1 4 -10 -11 -30 -25 13 -18 57 9 55 18 49 9 -7z
m-1139 9 c62 -14 67 -17 45 -25 -32 -12 -81 -1 -59 13 10 7 0 8 -31 4 -25 -3
-40 -3 -33 2 16 11 -89 10 -106 -1 -11 -7 -13 -5 -8 7 5 13 -2 15 -38 14 -33
-2 -41 -5 -33 -14 17 -21 3 -15 -17 7 -18 20 -17 20 96 14 63 -3 145 -12 184
-21z m497 -1 c-7 -2 -12 -8 -12 -14 0 -6 8 -7 18 -3 13 5 14 3 5 -6 -15 -15
-32 -4 -30 20 1 12 6 17 16 13 10 -4 11 -7 3 -10z m-712 -12 c0 -5 -5 -10 -11
-10 -5 0 -7 5 -4 10 3 6 8 10 11 10 2 0 4 -4 4 -10z m145 -10 c25 -11 -1 -11
-35 0 -20 6 -21 8 -5 8 11 0 29 -3 40 -8z m-668 -32 c-3 -8 -6 -5 -6 6 -1 11
2 17 5 13 3 -3 4 -12 1 -19z m720 16 c-3 -3 -12 -4 -19 -1 -8 3 -5 6 6 6 11 1
17 -2 13 -5z m293 2 c0 -7 -40 -14 -44 -7 -3 4 6 8 20 9 13 1 24 0 24 -2z
m-350 -16 c0 -5 -5 -10 -11 -10 -5 0 -7 5 -4 10 3 6 8 10 11 10 2 0 4 -4 4
-10z m337 -26 c-3 -3 -12 -4 -19 -1 -8 3 -5 6 6 6 11 1 17 -2 13 -5z m86 -1
c-7 -2 -19 -2 -25 0 -7 3 -2 5 12 5 14 0 19 -2 13 -5z m-330 -10 c-7 -2 -21
-2 -30 0 -10 3 -4 5 12 5 17 0 24 -2 18 -5z m-722 -43 c5 0 9 8 10 18 0 13 2
14 6 2 4 -8 13 -20 22 -27 20 -16 8 -16 -40 -1 -24 7 -39 17 -39 27 0 14 2 14
10 1 8 -13 10 -12 11 5 2 17 2 17 6 -2 2 -13 9 -23 14 -23z m862 33 c-7 -2
-19 -2 -25 0 -7 3 -2 5 12 5 14 0 19 -2 13 -5z m977 1 c0 -4 -69 -34 -79 -34
-3 0 1 5 9 10 11 7 12 12 3 18 -7 4 5 8 28 8 21 1 39 0 39 -2z m605 -35 c11
-16 1 -19 -13 -3 -7 8 -8 14 -3 14 5 0 13 -5 16 -11z m-2306 -472 c56 -64 56
-63 39 -73 -6 -4 -8 -3 -5 3 4 6 0 14 -9 17 -8 3 -12 2 -9 -4 3 -5 2 -17 -3
-27 -7 -12 -9 -6 -7 23 2 44 -10 67 -34 60 -20 -7 -62 24 -43 31 10 4 9 9 -4
24 -9 10 -14 19 -10 19 4 0 -1 12 -12 28 -11 15 -23 38 -27 52 -4 14 11 -2 33
-35 21 -33 62 -86 91 -118z m25 106 c37 -19 46 -27 35 -34 -21 -13 -39 -11
-39 5 0 19 -31 29 -44 15 -8 -9 -7 -10 6 -6 10 3 20 1 24 -5 4 -7 3 -8 -4 -4
-7 4 -12 2 -12 -3 0 -6 5 -11 10 -11 6 0 10 -5 10 -12 0 -6 10 -22 22 -35 20
-21 23 -22 39 -7 14 12 18 13 25 2 4 -7 4 -10 -1 -6 -4 4 -14 3 -22 -3 -10 -9
-10 -15 -2 -25 6 -8 9 -14 5 -14 -3 0 -8 0 -11 0 -3 0 -6 3 -7 7 -2 4 -14 19
-27 33 -22 23 -87 106 -121 154 -14 20 -13 19 25 -3 22 -14 62 -35 89 -48z
m1708 40 c-5 -24 -6 -25 -12 -8 -7 20 -7 20 -12 0 -5 -19 -6 -19 -7 2 -1 13 6
23 17 26 9 3 18 5 18 6 1 0 -1 -11 -4 -26z m-1832 -78 c0 -5 -5 -3 -10 5 -5 8
-10 20 -10 25 0 6 5 3 10 -5 5 -8 10 -19 10 -25z m179 -20 c5 2 19 -8 32 -23
l24 -27 -28 25 c-16 14 -32 24 -35 22 -4 -2 -7 1 -8 8 -2 6 -1 7 3 0 2 -5 8
-8 12 -5z m-19 -27 c0 -6 -7 -5 -15 2 -8 7 -15 17 -15 22 0 6 7 5 15 -2 8 -7
15 -17 15 -22z m1445 5 c-16 -24 -16 -26 -1 -20 10 4 14 3 11 -2 -5 -8 -45
-12 -45 -4 0 5 43 53 48 53 2 0 -4 -12 -13 -27z m-1591 -39 c3 -8 2 -12 -4 -9
-6 3 -10 10 -10 16 0 14 7 11 14 -7z m290 -97 c3 4 6 2 6 -4 0 -16 -11 -22
-24 -12 -6 5 -20 16 -31 25 -18 13 -17 13 11 0 17 -8 34 -12 38 -9z m60 -2
c14 -10 15 -15 6 -15 -11 0 -11 -3 -2 -12 8 -8 15 -8 29 3 16 12 17 12 6 -2
-7 -9 -9 -20 -5 -24 10 -12 -20 5 -40 23 -9 7 -23 11 -30 7 -7 -3 -5 0 5 8 18
15 18 15 0 20 -12 3 -13 5 -3 6 8 0 24 -6 34 -14z m1436 -5 c-11 -7 -11 -10
-2 -10 7 0 23 7 35 15 21 13 23 13 24 -4 2 -24 -76 -62 -137 -66 -34 -3 -39
-2 -20 5 14 4 37 8 53 9 16 1 27 7 28 16 2 24 4 29 13 43 4 7 11 11 14 7 4 -3
0 -10 -8 -15z m-310 -20 c0 -5 -5 -10 -11 -10 -5 0 -7 5 -4 10 3 6 8 10 11 10
2 0 4 -4 4 -10z m-1415 -46 c14 -9 24 -19 21 -21 -5 -6 -96 55 -96 64 0 3 11
-2 25 -11 14 -9 36 -23 50 -32z m1550 -4 c-3 -5 -12 -10 -18 -10 -7 0 -6 4 3
10 19 12 23 12 15 0z m-190 -10 c-3 -5 -14 -10 -23 -10 -15 0 -15 2 -2 10 20
13 33 13 25 0z m149 -11 c-5 -9 1 -10 22 -5 69 17 93 14 29 -4 -38 -11 -77
-19 -85 -18 -8 2 -20 -1 -26 -4 -6 -4 -42 -9 -80 -12 -38 -3 -59 -3 -46 0 12
3 20 9 18 13 -3 4 5 13 17 21 20 12 21 12 8 -4 -16 -19 -9 -32 11 -20 7 4 19
9 28 10 8 1 33 9 55 18 49 18 58 19 49 5z m-1161 -13 c8 5 9 4 2 -4 -11 -12
-65 -5 -65 9 0 5 12 4 26 -1 14 -6 31 -7 37 -4z m163 -8 c1 -12 -3 -15 -14
-10 -12 4 -13 7 -3 10 11 4 11 6 0 14 -12 8 -12 9 0 6 8 -2 15 -11 17 -20z
m-82 3 c4 -5 -3 -7 -14 -4 -23 6 -26 13 -6 13 8 0 17 -4 20 -9z m43 3 c-3 -3
-12 -4 -19 -1 -8 3 -5 6 6 6 11 1 17 -2 13 -5z m-78 -20 c6 4 11 5 11 2 0 -3
-8 -10 -18 -15 -14 -8 -18 -5 -19 12 -2 16 0 18 6 8 5 -7 14 -10 20 -7z m78 0
c-3 -3 -12 -4 -19 -1 -8 3 -5 6 6 6 11 1 17 -2 13 -5z m-120 -21 c0 -9 -4 -10
-14 -2 -7 6 -13 12 -13 14 0 1 6 2 13 2 8 0 14 -6 14 -14z m58 -3 c-4 -6 -1
-19 6 -28 10 -13 8 -12 -9 2 -17 15 -19 22 -10 28 17 10 20 10 13 -2z m235
-10 c8 -5 11 -10 5 -10 -5 0 -17 5 -25 10 -8 5 -10 10 -5 10 6 0 17 -5 25 -10z
m-209 -58 c-7 -2 -18 1 -23 6 -8 8 -4 9 13 5 13 -4 18 -8 10 -11z m1469 -1 c0
-6 -5 -13 -12 -17 -7 -5 -8 -3 -3 6 6 10 0 11 -29 6 -23 -4 -36 -3 -36 4 0 5
18 10 40 10 22 0 40 -4 40 -9z m-108 -52 c-11 -22 -18 -49 -15 -58 4 -13 3
-13 -5 -2 -8 11 -12 10 -20 -5 -10 -18 -12 -26 -12 -41 0 -5 -16 -19 -36 -32
-25 -18 -31 -26 -22 -32 9 -6 9 -9 1 -9 -24 0 -22 19 5 47 32 33 86 116 102
157 6 16 13 26 17 23 3 -3 -4 -25 -15 -48z m78 37 c0 -3 -4 -8 -10 -11 -5 -3
-10 -1 -10 4 0 6 5 11 10 11 6 0 10 -2 10 -4z m-44 -31 c0 -14 -4 -25 -8 -25
-10 0 -10 13 -2 34 9 23 12 20 10 -9z m-1926 -39 c51 -35 57 -48 29 -58 -12
-5 -18 -4 -14 2 3 6 14 10 23 10 11 0 7 5 -11 15 -15 8 -34 12 -41 9 -8 -3
-17 -1 -21 5 -4 7 1 8 12 4 16 -6 16 -5 4 10 -17 22 -31 22 -32 0 -1 -17 -2
-17 -6 0 -3 10 -9 14 -16 10 -8 -5 -8 -2 0 9 7 8 9 19 5 23 -10 11 14 -3 68
-39z m2002 20 c7 4 8 2 4 -4 -11 -17 -36 -3 -28 16 6 16 7 15 10 -1 2 -9 8
-14 14 -11z m-178 -31 c-15 -23 -34 -34 -34 -19 0 5 41 43 48 44 1 0 -5 -11
-14 -25z m-1881 -36 c4 -16 3 -18 -9 -8 -16 13 -19 29 -5 29 5 0 11 -9 14 -21z
m53 7 c24 9 16 0 -15 -16 -15 -8 -21 -8 -17 -1 4 6 2 11 -3 11 -6 0 -11 5 -11
11 0 8 4 8 14 0 7 -6 22 -8 32 -5z m1795 -3 c11 -13 11 -15 1 -9 -9 5 -12 3
-11 -5 2 -12 -41 -95 -45 -87 -1 2 -7 10 -14 19 -10 14 -10 18 2 22 11 4 13 1
10 -11 -4 -10 2 -7 15 8 25 30 26 40 5 40 -9 0 -12 -5 -8 -12 4 -7 4 -10 -1
-6 -4 4 -15 2 -23 -5 -13 -10 -14 -9 -7 2 5 10 4 12 -4 7 -6 -4 -9 -12 -6 -17
4 -5 0 -9 -7 -9 -10 0 -9 -3 2 -10 8 -5 11 -12 7 -17 -5 -4 -12 -1 -16 6 -5 8
-17 11 -30 6 -12 -3 -19 -10 -17 -14 3 -4 -9 -8 -25 -8 l-31 0 28 16 c16 8 32
14 37 13 4 -1 7 2 7 8 0 5 7 6 17 3 10 -4 14 -2 10 4 -8 13 60 56 74 47 5 -3
9 -2 8 3 -5 26 4 29 22 6z m-1663 -48 c4 0 6 -4 4 -8 -1 -5 2 -6 8 -2 6 4 17
2 24 -4 33 -27 210 -113 300 -145 25 -9 16 -17 -26 -22 -24 -3 -28 -1 -13 5
17 7 13 11 -28 29 -27 12 -51 21 -55 21 -19 -3 -33 2 -28 10 3 5 -1 11 -9 15
-8 3 -18 -1 -22 -8 -6 -10 -14 -9 -38 5 -16 11 -24 19 -17 19 6 0 12 5 12 11
0 6 -9 9 -19 6 -15 -3 -18 -1 -14 11 5 12 1 14 -15 10 -12 -4 -20 -2 -17 2 7
12 -32 23 -46 14 -8 -4 -9 -3 -5 5 4 6 0 14 -10 18 -23 9 -54 40 -46 47 3 4
16 -4 30 -16 13 -13 27 -23 30 -23z m-58 -9 c0 -3 -4 -8 -10 -11 -5 -3 -10 -1
-10 4 0 6 5 11 10 11 6 0 10 -2 10 -4z m-203 -28 c-3 -8 -6 -5 -6 6 -1 11 2
17 5 13 3 -3 4 -12 1 -19z m23 -24 c0 -8 -19 -13 -24 -6 -3 5 1 9 9 9 8 0 15
-2 15 -3z m55 -12 c-3 -3 -11 0 -18 7 -9 10 -8 11 6 5 10 -3 15 -9 12 -12z
m1975 3 c0 -2 -9 -3 -19 -2 -11 0 -18 5 -15 9 4 6 34 0 34 -7z m-1933 -1 c-3
-3 -12 -4 -19 -1 -8 3 -5 6 6 6 11 1 17 -2 13 -5z m1569 -6 c4 -7 3 -10 -1 -5
-5 4 -17 0 -27 -9 -15 -14 -16 -20 -5 -33 10 -14 10 -14 -4 -4 -21 17 -66 -12
-49 -32 8 -10 8 -15 0 -20 -8 -5 -8 -11 1 -21 10 -12 9 -13 -5 -8 -18 7 -21
20 -5 30 7 4 8 9 0 17 -16 16 -45 -11 -30 -30 9 -10 9 -12 -3 -8 -8 3 -23 -3
-33 -15 -10 -11 -22 -20 -27 -20 -5 0 4 11 19 25 19 18 5 12 -44 -17 -49 -29
-68 -45 -60 -51 8 -6 6 -7 -5 -3 -10 3 -54 -12 -99 -34 -114 -55 -208 -75
-288 -60 -34 6 -67 8 -74 4 -6 -4 -9 -3 -4 1 5 7 -104 75 -120 75 -7 0 3 -26
12 -33 6 -5 4 -7 -5 -4 -8 2 -15 14 -15 26 0 31 -113 115 -133 99 -7 -6 -12
-7 -11 -2 4 21 -2 26 -18 13 -11 -10 -14 -10 -9 -2 9 16 -6 17 -20 3 -6 -6
-24 -13 -40 -16 -27 -5 -30 5 -2 10 27 6 48 18 43 26 -3 5 9 4 27 -2 58 -18
283 -11 504 16 116 14 231 26 257 26 62 0 141 18 202 46 60 27 62 27 71 12z
m284 2 c0 -5 -4 -10 -10 -10 -5 0 -10 5 -10 10 0 6 5 10 10 10 6 0 10 -4 10
-10z m-1883 -30 c4 -11 2 -12 -5 -2 -5 7 -16 10 -27 6 -13 -5 -16 -4 -11 5 10
16 38 10 43 -9z m1893 6 c0 -3 -4 -8 -10 -11 -5 -3 -10 -1 -10 4 0 6 5 11 10
11 6 0 10 -2 10 -4z m-35 -16 c3 -5 1 -10 -4 -10 -6 0 -11 5 -11 10 0 6 2 10
4 10 3 0 8 -4 11 -10z m-42 -35 c-3 -9 -8 -14 -10 -11 -3 3 -2 9 2 15 9 16 15
13 8 -4z m-1583 -15 c-8 -5 -19 -10 -25 -10 -5 0 -3 5 5 10 8 5 20 10 25 10 6
0 3 -5 -5 -10z m1560 -4 c0 -2 -7 -7 -16 -10 -8 -3 -12 -2 -9 4 6 10 25 14 25
6z m-1333 -32 c-3 -3 -12 -4 -19 -1 -8 3 -5 6 6 6 11 1 17 -2 13 -5z m-110
-20 c-2 -3 -17 -7 -33 -10 -17 -2 -24 -1 -17 4 13 8 58 14 50 6z m1316 -18
c22 0 22 -1 -7 -19 -20 -14 -26 -14 -36 -2 -9 11 -7 13 12 9 23 -5 23 -5 -2
11 -17 11 -19 14 -5 9 11 -4 28 -7 38 -8z m-1296 -2 c-3 -3 -12 -4 -19 -1 -8
3 -5 6 6 6 11 1 17 -2 13 -5z m1063 -9 c-7 -8 -18 -15 -24 -15 -6 0 -2 7 8 15
25 19 32 19 16 0z m-1035 -4 c3 -5 2 -12 -3 -15 -5 -3 -9 1 -9 9 0 17 3 19 12
6z m276 -18 l24 -28 -30 25 c-16 14 -32 26 -34 28 -2 1 0 2 6 2 5 0 20 -12 34
-27z m718 24 c-2 -1 -13 -9 -24 -17 -19 -14 -19 -14 -6 3 7 9 18 17 24 17 6 0
8 -1 6 -3z m48 -31 c0 -8 -6 -12 -15 -9 -11 5 -11 7 0 14 7 5 13 9 14 9 0 0 1
-6 1 -14z m-877 -31 c-6 -7 1 -15 21 -24 16 -7 29 -17 29 -23 0 -6 -9 -3 -19
6 -12 11 -27 15 -39 11 -25 -7 -40 13 -17 21 13 5 14 8 3 15 -9 6 -6 8 9 6 14
-1 19 -5 13 -12z m-45 -5 c-3 -5 -12 -7 -20 -3 -21 7 -19 13 6 13 11 0 18 -4
14 -10z m952 4 c-3 -3 -12 -4 -19 -1 -8 3 -5 6 6 6 11 1 17 -2 13 -5z m58 -3
c3 -5 2 -12 -3 -15 -5 -3 -9 1 -9 9 0 17 3 19 12 6z m-285 -21 c-13 -8 -13
-10 -1 -10 8 0 12 -2 9 -5 -3 -3 -13 -3 -22 1 -15 6 -15 7 1 19 10 8 20 11 23
9 2 -3 -2 -9 -10 -14z m-466 -11 c-4 -8 1 -9 17 -4 19 5 21 4 9 -4 -13 -9 -12
-11 5 -12 11 0 15 -3 8 -5 -7 -3 -21 0 -32 6 -14 7 -27 7 -39 1 -14 -7 -19 -6
-19 4 0 8 4 12 9 9 4 -3 16 0 25 5 23 13 26 13 17 0z m440 -12 c16 -12 15 -13
-11 -11 -54 3 -59 5 -38 14 27 12 29 12 49 -3z m96 -37 c13 -11 20 -23 17 -27
-4 -3 -15 3 -24 14 -10 11 -25 18 -33 16 -13 -4 -13 -3 0 6 8 6 15 11 16 11 1
0 11 -9 24 -20z m-530 -7 c3 -3 -12 -4 -32 -1 -21 2 -38 3 -38 1 0 -2 15 -10
33 -18 17 -8 24 -13 14 -10 -10 3 -28 5 -38 5 -13 0 -18 4 -13 12 5 8 2 9 -10
5 -11 -5 -15 -3 -10 5 5 8 2 9 -10 5 -9 -4 -15 -3 -11 2 5 9 106 4 115 -6z
m610 13 c0 -3 -4 -8 -10 -11 -5 -3 -10 -1 -10 4 0 6 5 11 10 11 6 0 10 -2 10
-4z m-377 -43 c-7 -2 -19 -2 -25 0 -7 3 -2 5 12 5 14 0 19 -2 13 -5z m104 -39
c-3 -3 -12 -4 -19 -1 -8 3 -5 6 6 6 11 1 17 -2 13 -5z"/>
<path d="M2240 3245 c0 -11 -7 -31 -16 -43 -8 -12 -12 -22 -7 -22 28 1 49 45
33 70 -8 12 -10 11 -10 -5z"/>
<path d="M2368 3044 c28 -55 58 -127 67 -160 10 -32 21 -63 26 -69 17 -17 -2
57 -35 141 -23 58 -28 80 -18 76 24 -9 -1 28 -48 72 l-42 40 50 -100z"/>
<path d="M2165 3040 c-16 -30 -34 -141 -21 -129 7 7 45 153 41 157 -2 2 -11
-10 -20 -28z"/>
<path d="M1409 2537 c7 -9 17 -15 21 -12 4 3 13 -2 20 -11 7 -8 19 -13 27 -10
9 4 11 1 7 -5 -4 -7 -2 -10 5 -8 23 8 16 21 -19 34 -19 7 -44 16 -55 21 -18 7
-18 6 -6 -9z"/>
<path d="M794 2521 c-86 -29 -159 -67 -185 -97 -9 -11 -20 -39 -24 -63 l-7
-43 37 40 c44 49 176 136 234 154 22 7 43 18 46 25 6 18 -8 16 -101 -16z"/>
<path d="M563 2497 c-11 -12 -19 -27 -16 -33 2 -6 -6 -19 -17 -29 -16 -15 -18
-21 -8 -34 7 -9 -1 -5 -17 9 -16 14 -24 18 -17 8 10 -12 10 -18 1 -23 -6 -4
-15 -2 -19 5 -11 18 -19 -10 -10 -35 7 -20 -8 -55 -24 -55 -4 0 -4 6 1 13 13
15 13 47 0 47 -5 0 -7 -7 -4 -14 4 -10 1 -13 -7 -10 -7 3 -16 -2 -20 -11 -3
-9 -2 -14 2 -11 4 2 8 -4 8 -14 0 -14 -3 -16 -13 -8 -10 8 -13 5 -13 -10 0
-12 4 -23 8 -26 12 -7 166 140 158 152 -3 5 1 16 10 23 14 12 14 14 -1 25 -15
11 -14 13 6 28 13 8 20 18 18 21 -3 3 -15 -5 -26 -18z m-72 -140 c-13 -13 -26
-3 -16 12 3 6 11 8 17 5 6 -4 6 -10 -1 -17z"/>
<path d="M581 2214 c0 -11 3 -14 6 -6 3 7 2 16 -1 19 -3 4 -6 -2 -5 -13z"/>
<path d="M970 2650 c-9 -6 -10 -10 -3 -10 6 0 15 5 18 10 8 12 4 12 -15 0z"/>
<path d="M3821 1904 c0 -11 3 -14 6 -6 3 7 2 16 -1 19 -3 4 -6 -2 -5 -13z"/>
<path d="M1166 2158 c3 -4 9 -8 15 -8 5 0 9 4 9 8 0 5 -7 9 -15 9 -8 0 -12 -4
-9 -9z"/>
<path d="M1125 2140 c-3 -6 1 -7 9 -4 18 7 21 14 7 14 -6 0 -13 -4 -16 -10z"/>
<path d="M1534 974 c3 -18 34 -39 43 -30 7 7 -26 46 -38 46 -4 0 -6 -7 -5 -16z"/>
<path d="M1410 874 c0 -18 39 -114 52 -129 5 -5 2 10 -7 35 -9 25 -16 59 -17
77 -1 33 -28 49 -28 17z"/>
<path d="M1928 1593 c7 -3 16 -2 19 1 4 3 -2 6 -13 5 -11 0 -14 -3 -6 -6z"/>
<path d="M1290 1066 c8 -10 15 -26 15 -34 0 -8 6 -17 13 -19 6 -3 12 0 12 6 0
6 -5 11 -11 11 -5 0 -8 4 -5 9 3 4 -4 17 -17 27 -21 19 -21 19 -7 0z"/>
<path d="M1320 1120 c0 -5 5 -10 11 -10 5 0 7 5 4 10 -3 6 -8 10 -11 10 -2 0
-4 -4 -4 -10z"/>
<path d="M3079 873 c-13 -15 -12 -15 9 -4 23 12 28 21 13 21 -5 0 -15 -7 -22
-17z"/>
<path d="M2808 783 c7 -3 16 -2 19 1 4 3 -2 6 -13 5 -11 0 -14 -3 -6 -6z"/>
<path d="M1490 400 c20 -13 33 -13 25 0 -3 6 -14 10 -23 10 -15 0 -15 -2 -2
-10z"/>
<path d="M2087 5139 c-7 -29 9 -99 24 -99 6 0 7 5 3 11 -3 6 -9 34 -13 63 -6
42 -8 47 -14 25z"/>
<path d="M1605 4709 c-4 -6 -5 -12 -2 -15 2 -3 7 2 10 11 7 17 1 20 -8 4z"/>
<path d="M1580 4648 c-6 -18 -14 -69 -17 -113 -5 -75 -3 -87 32 -180 84 -223
183 -414 253 -488 45 -47 93 -73 152 -81 40 -5 37 -4 -18 13 -78 23 -128 68
-171 156 -17 34 -31 67 -31 73 0 6 -4 14 -10 17 -6 4 -7 -1 -3 -12 3 -10 3
-16 0 -13 -12 11 -91 178 -140 299 -49 119 -52 131 -51 211 1 47 7 98 13 114
6 16 10 31 7 33 -2 2 -9 -11 -16 -29z"/>
<path d="M2320 4294 c0 -12 7 -27 15 -34 19 -16 19 -3 0 30 -13 24 -14 24 -15
4z"/>
<path d="M1791 4269 c-19 -4 -41 -5 -50 -1 -9 3 -13 1 -8 -4 5 -5 32 -10 60
-11 29 -1 81 -5 117 -8 36 -4 112 -1 170 5 155 19 210 17 226 -5 22 -30 16
-37 -16 -20 -16 8 -51 17 -77 20 l-48 5 47 -14 c26 -8 64 -23 83 -35 20 -12
38 -21 41 -21 8 0 4 39 -8 65 -14 31 -42 39 -105 31 -100 -12 -329 -18 -363
-9 -19 5 -50 6 -69 2z"/>
<path d="M1985 4161 c11 -5 36 -11 55 -15 33 -7 34 -6 16 9 -11 8 -36 15 -55
14 -29 0 -32 -2 -16 -8z"/>
<path d="M2078 3793 c7 -3 16 -2 19 1 4 3 -2 6 -13 5 -11 0 -14 -3 -6 -6z"/>
<path d="M797 3166 c-20 -30 -64 -84 -98 -120 -93 -99 -57 -79 48 27 104 105
132 147 99 147 -7 0 -29 -24 -49 -54z"/>
<path d="M888 3203 c6 -2 18 -2 25 0 6 3 1 5 -13 5 -14 0 -19 -2 -12 -5z"/>
<path d="M835 3132 c-25 -32 -26 -34 -4 -14 14 12 28 20 30 18 3 -3 5 4 6 14
2 25 4 26 -32 -18z"/>
<path d="M766 3053 c-6 -14 -5 -15 5 -6 7 7 10 15 7 18 -3 3 -9 -2 -12 -12z"/>
<path d="M699 2993 c-13 -17 -13 -17 6 -3 11 8 22 16 24 17 2 2 0 3 -6 3 -6 0
-17 -8 -24 -17z"/>
<path d="M3183 2844 c-7 -3 -10 -11 -7 -18 3 -8 -2 -16 -12 -20 -13 -5 -14 -9
-4 -21 7 -8 16 -12 21 -9 5 3 8 0 7 -8 -2 -7 4 -13 12 -13 8 0 15 9 15 20 0
14 -7 19 -20 18 -17 -1 -17 1 5 18 21 15 22 19 7 19 -10 0 -15 5 -12 10 7 11
6 11 -12 4z"/>
<path d="M3217 2798 c4 -7 8 -19 9 -26 4 -22 36 -52 47 -45 6 3 1 10 -12 15
-12 4 -19 12 -16 18 3 5 1 10 -4 10 -6 0 -10 3 -10 8 3 18 -2 32 -12 32 -6 0
-7 -5 -2 -12z"/>
<path d="M3069 2733 l-24 -28 28 24 c25 23 32 31 24 31 -2 0 -14 -12 -28 -27z"/>
<path d="M3280 2561 c0 -5 7 -11 14 -14 10 -4 13 -1 9 9 -6 15 -23 19 -23 5z"/>
<path d="M3390 2451 c0 -6 4 -13 10 -16 6 -3 7 1 4 9 -7 18 -14 21 -14 7z"/>
<path d="M3497 2443 c-7 -12 62 -108 71 -99 3 3 12 0 20 -7 13 -10 14 -9 4 8
-23 40 -89 108 -95 98z m24 -20 c13 -16 12 -17 -3 -4 -17 13 -22 21 -14 21 2
0 10 -8 17 -17z m34 -43 c10 -11 16 -20 13 -20 -3 0 -13 9 -23 20 -10 11 -16
20 -13 20 3 0 13 -9 23 -20z"/>
<path d="M3640 2285 c0 -4 9 -18 20 -32 11 -14 20 -22 20 -18 0 4 -9 18 -20
32 -11 14 -20 22 -20 18z"/>
<path d="M2 1980 c0 -19 2 -27 5 -17 2 9 2 25 0 35 -3 9 -5 1 -5 -18z"/>
<path d="M3575 1909 c-4 -6 -5 -12 -2 -15 2 -3 7 2 10 11 7 17 1 20 -8 4z"/>
<path d="M3147 1893 c-3 -5 -2 -15 2 -22 5 -7 11 -9 14 -4 3 5 2 15 -2 22 -5
7 -11 9 -14 4z"/>
</g>
</svg>
